<?xml version="1.0" encoding="utf-8"?>
<!-- Generator: Adobe Illustrator 25.2.0, SVG Export Plug-In . SVG Version: 6.00 Build 0)  -->
<svg version="1.1" id="Layer_1" xmlns="http://www.w3.org/2000/svg" xmlns:xlink="http://www.w3.org/1999/xlink" x="0px" y="0px"
	 viewBox="0 0 200 200" style="enable-background:new 0 0 200 200;" xml:space="preserve">
<style type="text/css">
	.st0{fill:#EC1C24;}
	.st1{fill-rule:evenodd;clip-rule:evenodd;fill:#EC1C24;stroke:#EC1C24;stroke-width:0.7498;stroke-miterlimit:2.6131;}
	.st2{fill-rule:evenodd;clip-rule:evenodd;fill:#EC1C24;}
	.st3{fill:#FFFFFF;}
</style>
<g>
	<g>
		<path class="st0" d="M119.13,105.29c-0.26,0.03-0.52,0.06-0.78,0.07c-0.26,0.02-0.63,0.02-1.11,0.02c-1.58,0-2.8-0.3-3.66-0.9
			c-0.86-0.6-1.28-1.46-1.28-2.59c0-0.65,0.28-1.22,0.82-1.72c0.55-0.5,1.19-0.75,1.94-0.75c1.03,0,1.98,0.21,2.83,0.63
			c0.86,0.42,1.64,1.07,2.35,1.94c1.81-0.06,3.73-0.73,5.76-2.01c2.03-1.27,4.15-3.12,6.34-5.54c2.78-3.1,4.91-6.17,6.39-9.22
			c1.48-3.05,2.23-5.85,2.23-8.4c0-1.65-0.28-3.16-0.85-4.53c-0.56-1.37-1.45-2.64-2.64-3.8c-1.87,1.52-3.81,3.36-5.81,5.52
			c-2,2.16-4.39,5.05-7.17,8.67c-3.23,4.13-7.18,9.64-11.86,16.54c-4.68,6.89-7.97,11.42-9.88,13.58
			c-6.17,7.1-12.41,12.38-18.74,15.83c-6.33,3.46-12.86,5.18-19.61,5.18c-5.13,0-9.19-0.95-12.18-2.86
			c-2.99-1.9-4.48-4.46-4.48-7.65c0-1.87,0.63-3.46,1.89-4.77c1.26-1.31,2.78-1.96,4.55-1.96c1.36,0,2.5,0.44,3.44,1.33
			c0.94,0.89,1.4,1.96,1.4,3.22c0,1.1-0.34,1.95-1.02,2.57c-0.68,0.61-1.63,0.92-2.86,0.92c-0.55,0-1.28-0.19-2.2-0.56
			s-1.61-0.56-2.06-0.56c-0.23,0-0.4,0.08-0.51,0.24c-0.11,0.16-0.17,0.39-0.17,0.68c0,1.84,1.24,3.47,3.73,4.89
			c2.49,1.42,5.44,2.13,8.86,2.13c2.84,0,5.56-0.35,8.16-1.04c2.6-0.69,5.09-1.77,7.48-3.22c2.65-1.58,5.64-4.07,8.98-7.46
			s7.82-8.54,13.44-15.45c1.55-1.9,3.81-4.73,6.78-8.47c11.46-14.46,20.61-24.13,27.46-29.01c-2.55-1.48-5.27-2.6-8.16-3.34
			c-2.89-0.74-6-1.11-9.32-1.11c-6.2,0-12.46,1.07-18.77,3.22c-6.31,2.15-12.15,5.21-17.51,9.18c-4.39,3.26-7.77,6.66-10.15,10.19
			c-2.37,3.53-3.56,6.95-3.56,10.24c0,2.52,0.92,4.6,2.76,6.25c1.84,1.65,4.2,2.47,7.07,2.47c3.87,0,8.12-1.56,12.74-4.67
			c4.62-3.12,8.89-7.37,12.83-12.76c1.94-2.65,3.57-5.48,4.89-8.5c1.32-3.02,2.18-4.53,2.57-4.53c0.19,0,0.34,0.1,0.44,0.31
			s0.14,0.54,0.14,0.99c0,1.55-0.44,3.64-1.33,6.27c-0.89,2.63-2.03,5.06-3.41,7.29c-3.58,5.78-7.77,10.2-12.57,13.27
			c-4.79,3.07-9.94,4.6-15.42,4.6c-3.91,0-7.06-1.02-9.47-3.08c-2.41-2.05-3.61-4.72-3.61-8.01c0-3.58,1.26-7.28,3.78-11.09
			c2.52-3.81,6.12-7.46,10.8-10.94c5.62-4.13,11.72-7.31,18.3-9.54c6.59-2.23,13.15-3.34,19.71-3.34c3.55,0,6.92,0.43,10.12,1.28
			c3.2,0.86,6.26,2.14,9.2,3.85c2.26-1.29,3.84-2.14,4.75-2.54c0.9-0.4,1.6-0.6,2.08-0.6c0.26,0,0.49,0.06,0.7,0.19
			c0.21,0.13,0.31,0.29,0.31,0.48c0,0.55-0.89,1.36-2.66,2.42c-1.16,0.68-2.1,1.26-2.81,1.74c1.94,1.94,3.38,3.92,4.33,5.96
			c0.95,2.03,1.43,4.15,1.43,6.34c0,6.26-2.07,11.69-6.22,16.29c-4.15,4.6-9.84,7.66-17.07,9.18c0.32,0.87,0.56,1.71,0.73,2.52
			c0.16,0.81,0.24,1.6,0.24,2.37c0,1.62-0.38,3.26-1.14,4.94c-0.76,1.68-1.96,3.5-3.61,5.47c-1.29,1.52-3,3.37-5.13,5.57
			s-3.2,3.62-3.2,4.26c0,0.36,0.13,0.64,0.39,0.85c0.26,0.21,0.61,0.31,1.06,0.31c1.52,0,3.66-0.7,6.42-2.11
			c2.76-1.4,5.79-3.35,9.08-5.83c1.36-1,2.79-2.15,4.31-3.46c1.52-1.31,2.39-1.96,2.61-1.96c0.26,0,0.45,0.07,0.58,0.22
			c0.13,0.14,0.21,0.36,0.24,0.65c0,0.39-0.43,1.01-1.28,1.86c-0.86,0.86-2.35,2.12-4.48,3.8c-3.55,2.84-6.93,5.07-10.15,6.68
			c-3.21,1.61-5.82,2.42-7.82,2.42c-1.87,0-3.27-0.4-4.19-1.21s-1.38-2.05-1.38-3.73c0-2.36,1.97-5.55,5.91-9.59
			c1.32-1.36,2.34-2.42,3.05-3.2c1.97-2.16,3.32-3.87,4.04-5.11c0.73-1.24,1.09-2.38,1.09-3.41c0-0.32-0.03-0.63-0.07-0.92
			C119.3,105.87,119.23,105.58,119.13,105.29z"/>
	</g>
	<path class="st1" d="M76.6,34.55c35.79-12.91,75.27,5.63,88.18,41.42c12.91,35.79-5.63,75.27-41.42,88.18
		c-35.79,12.91-75.27-5.63-88.18-41.42C22.27,86.94,40.81,47.46,76.6,34.55L76.6,34.55z M75.87,32.52
		c-36.91,13.32-56.03,54.03-42.72,90.94c13.32,36.91,54.03,56.03,90.94,42.72c36.91-13.32,56.03-54.03,42.72-90.94
		C153.49,38.33,112.78,19.21,75.87,32.52z"/>
	
		<rect x="61.69" y="9.7" transform="matrix(0.9406 -0.3394 0.3394 0.9406 -3.2828 25.8213)" class="st2" width="20.98" height="25.19"/>
	
		<rect x="90.59" y="7" transform="matrix(0.0388 -0.9992 0.9992 0.0388 81.6986 119.9181)" class="st2" width="25.19" height="20.98"/>
	
		<rect x="121.12" y="14.2" transform="matrix(0.4113 -0.9115 0.9115 0.4113 56.2154 136.4146)" class="st2" width="25.19" height="20.98"/>
	
		<rect x="146.72" y="32.34" transform="matrix(0.7236 -0.6902 0.6902 0.7236 14.4783 121.8012)" class="st2" width="25.19" height="20.98"/>
	
		<rect x="163.63" y="58.76" transform="matrix(0.9299 -0.3678 0.3678 0.9299 -13.1171 69.6778)" class="st2" width="25.19" height="20.98"/>
	
		<rect x="171.48" y="87.49" transform="matrix(8.366053e-03 -1 1 8.366053e-03 80.3595 281.2119)" class="st2" width="20.98" height="25.19"/>
	
		<rect x="165.22" y="118.23" transform="matrix(0.3834 -0.9236 0.9236 0.3834 -12.4897 242.9486)" class="st2" width="20.98" height="25.19"/>
	
		<rect x="147.87" y="144.37" transform="matrix(0.7023 -0.7119 0.7119 0.7023 -64.5979 159.469)" class="st2" width="20.98" height="25.19"/>
	
		<rect x="117.33" y="163.91" transform="matrix(0.9407 -0.3394 0.3394 0.9407 -52.3132 53.8507)" class="st2" width="20.98" height="25.19"/>
	
		<rect x="84.22" y="170.82" transform="matrix(0.0389 -0.9992 0.9992 0.0389 -88.1147 271.01)" class="st2" width="25.19" height="20.98"/>
	
		<rect x="53.69" y="163.63" transform="matrix(0.4113 -0.9115 0.9115 0.4113 -119.6849 162.9149)" class="st2" width="25.19" height="20.98"/>
	
		<rect x="28.09" y="145.49" transform="matrix(0.7236 -0.6902 0.6902 0.7236 -96.4125 71.1945)" class="st2" width="25.19" height="20.98"/>
	
		<rect x="11.18" y="119.06" transform="matrix(0.9299 -0.3679 0.3679 0.9299 -45.9902 17.831)" class="st2" width="25.19" height="20.98"/>
	
		<rect x="7.55" y="86.12" transform="matrix(8.365991e-03 -1 1 8.365991e-03 -80.8269 115.9198)" class="st2" width="20.98" height="25.19"/>
	
		<rect x="13.81" y="55.38" transform="matrix(0.3834 -0.9236 0.9236 0.3834 -47.7989 64.3509)" class="st2" width="20.98" height="25.19"/>
	
		<rect x="31.16" y="29.24" transform="matrix(0.7023 -0.7119 0.7119 0.7023 -17.3848 42.1035)" class="st2" width="20.98" height="25.19"/>
	<g>
		<path class="st3" d="M69.93,30.22l-4.54-12.58l1.71-0.62l10.17,7.49l-3.56-9.87l1.6-0.58l4.54,12.58l-1.71,0.62l-10.17-7.5
			l3.57,9.88L69.93,30.22z"/>
	</g>
	<g>
		<path class="st3" d="M97.2,23.79l0.46-13.36l4.6,0.16c1.04,0.04,1.83,0.13,2.37,0.27c0.76,0.2,1.4,0.54,1.93,1.02
			c0.68,0.62,1.18,1.4,1.5,2.34c0.32,0.94,0.46,2,0.41,3.19c-0.04,1.02-0.19,1.91-0.45,2.69c-0.26,0.78-0.59,1.41-0.98,1.91
			c-0.39,0.5-0.81,0.89-1.26,1.17c-0.45,0.28-0.99,0.48-1.62,0.61c-0.63,0.13-1.35,0.18-2.15,0.15L97.2,23.79z M99.02,22.27
			l2.85,0.1c0.88,0.03,1.58-0.03,2.08-0.17c0.51-0.15,0.91-0.36,1.22-0.65c0.43-0.4,0.78-0.96,1.04-1.66
			c0.26-0.7,0.41-1.55,0.44-2.56c0.05-1.4-0.14-2.48-0.58-3.25c-0.43-0.77-0.97-1.29-1.62-1.57c-0.47-0.2-1.23-0.32-2.28-0.35
			l-2.81-0.1L99.02,22.27z"/>
	</g>
	<g>
		<path class="st3" d="M125.46,28.42l9.94-10.31l1.76,0.74l-0.18,14.45l-1.86-0.79l0.14-4.34L130.12,26l-2.93,3.16L125.46,28.42z
			 M131.15,24.87l4.17,1.77l0.16-3.95c0.05-1.2,0.12-2.18,0.21-2.92c-0.49,0.72-1.04,1.41-1.66,2.07L131.15,24.87z"/>
	</g>
	<g>
		<path class="st3" d="M150.37,44.43l9.61-9.3l1.26,1.3l-2.66,12.35l7.54-7.3l1.18,1.22L157.7,52l-1.26-1.3l2.67-12.35l-7.55,7.31
			L150.37,44.43z"/>
	</g>
	<g>
		<path class="st3" d="M176.08,73.66l0.17,1.82c-1.49,0.14-2.76-0.12-3.8-0.78c-1.04-0.65-1.79-1.64-2.26-2.95
			c-0.48-1.36-0.59-2.56-0.34-3.61c0.25-1.05,0.82-1.98,1.71-2.79c0.89-0.81,1.94-1.44,3.14-1.86c1.31-0.46,2.55-0.62,3.7-0.46
			c1.16,0.15,2.15,0.61,2.98,1.35c0.83,0.75,1.45,1.67,1.84,2.79c0.45,1.26,0.5,2.44,0.16,3.52c-0.34,1.09-1.03,2-2.07,2.76
			l-0.97-1.5c0.81-0.62,1.33-1.28,1.55-1.98c0.22-0.7,0.18-1.48-0.11-2.32c-0.34-0.97-0.86-1.7-1.56-2.18
			c-0.69-0.49-1.48-0.72-2.36-0.71c-0.88,0.01-1.73,0.17-2.56,0.46c-1.07,0.38-1.95,0.87-2.64,1.46c-0.69,0.6-1.12,1.29-1.28,2.09
			c-0.16,0.8-0.11,1.58,0.17,2.35c0.33,0.93,0.88,1.63,1.65,2.09C173.99,73.65,174.94,73.81,176.08,73.66z"/>
	</g>
	<g>
		<path class="st3" d="M176.83,94.82l13.34,0.9l-0.65,9.65l-1.57-0.11l0.53-7.88l-4.09-0.27l-0.5,7.38l-1.56-0.11l0.5-7.38
			l-4.54-0.31l-0.55,8.19l-1.57-0.11L176.83,94.82z"/>
	</g>
	<g>
		<path class="st3" d="M175.13,125.58l-0.32,1.64c-0.66-0.11-1.24-0.08-1.73,0.08c-0.49,0.16-0.95,0.49-1.37,1.01
			c-0.42,0.51-0.74,1.13-0.95,1.86c-0.19,0.65-0.26,1.25-0.21,1.8c0.05,0.55,0.21,1,0.47,1.34c0.27,0.34,0.6,0.57,1,0.68
			c0.4,0.12,0.79,0.1,1.16-0.05c0.37-0.15,0.73-0.46,1.09-0.94c0.23-0.31,0.66-1.01,1.28-2.11c0.62-1.1,1.13-1.85,1.51-2.25
			c0.5-0.52,1.03-0.86,1.59-1.03c0.56-0.16,1.14-0.16,1.73,0.01c0.65,0.19,1.2,0.54,1.66,1.08c0.46,0.53,0.73,1.19,0.82,1.98
			c0.09,0.79,0.01,1.62-0.24,2.48c-0.27,0.95-0.67,1.75-1.18,2.39c-0.52,0.64-1.13,1.07-1.84,1.29s-1.45,0.24-2.21,0.05l0.35-1.67
			c0.84,0.15,1.54,0.03,2.1-0.36c0.56-0.39,0.98-1.07,1.27-2.06c0.3-1.03,0.32-1.83,0.08-2.41c-0.24-0.58-0.63-0.94-1.16-1.1
			c-0.46-0.13-0.89-0.08-1.28,0.17c-0.39,0.24-0.94,1.01-1.65,2.3c-0.71,1.29-1.26,2.16-1.64,2.61c-0.56,0.65-1.16,1.08-1.79,1.28
			s-1.29,0.21-1.98,0.01c-0.68-0.2-1.27-0.58-1.76-1.14c-0.49-0.57-0.8-1.26-0.93-2.09s-0.06-1.7,0.21-2.62
			c0.33-1.16,0.78-2.09,1.35-2.78c0.57-0.69,1.25-1.16,2.06-1.41C173.43,125.37,174.27,125.35,175.13,125.58z"/>
	</g>
	<g>
		<path class="st3" d="M159.82,166.51l-9.86-9.03l1.8-1.96l9.12,4.06c0.85,0.38,1.48,0.67,1.89,0.87c-0.26-0.44-0.62-1.1-1.1-1.97
			l-4.7-8.65l1.61-1.75l9.86,9.03l-1.15,1.26l-8.25-7.56l5.63,10.43l-1.08,1.18l-11-4.84l8.39,7.69L159.82,166.51z"/>
	</g>
	<g>
		<path class="st3" d="M125.87,185.44l-4.64-12.54l9.07-3.36l0.55,1.48l-7.41,2.74l1.42,3.84l6.94-2.57l0.55,1.47l-6.94,2.57
			l1.58,4.27l7.7-2.85l0.55,1.48L125.87,185.44z"/>
	</g>
	<g>
		<path class="st3" d="M95.22,189.22l0.41-11.79l-4.4-0.15l0.05-1.58l10.59,0.37l-0.05,1.58l-4.42-0.15l-0.41,11.79L95.22,189.22z"
			/>
	</g>
	<g>
		<path class="st3" d="M59.27,175.56l1.57,0.57c-0.21,0.64-0.27,1.21-0.19,1.72c0.08,0.51,0.34,1.01,0.78,1.51
			c0.44,0.5,1,0.91,1.69,1.23c0.61,0.29,1.19,0.45,1.75,0.48c0.55,0.04,1.02-0.05,1.4-0.26c0.38-0.21,0.65-0.5,0.83-0.88
			c0.18-0.38,0.22-0.76,0.13-1.15c-0.09-0.39-0.34-0.79-0.76-1.22c-0.27-0.28-0.89-0.81-1.88-1.6c-0.99-0.79-1.65-1.4-1.99-1.85
			c-0.44-0.57-0.69-1.15-0.77-1.73c-0.07-0.58,0.02-1.15,0.28-1.71c0.28-0.61,0.72-1.1,1.32-1.47c0.59-0.37,1.29-0.54,2.08-0.5
			c0.8,0.04,1.6,0.24,2.42,0.62c0.9,0.42,1.62,0.93,2.17,1.54c0.55,0.61,0.88,1.28,0.99,2.01c0.11,0.73,0.01,1.46-0.29,2.19
			l-1.59-0.6c0.27-0.81,0.26-1.51-0.03-2.13c-0.3-0.61-0.91-1.14-1.84-1.57c-0.97-0.45-1.76-0.6-2.37-0.45s-1.03,0.47-1.26,0.98
			c-0.2,0.44-0.21,0.87-0.03,1.29c0.18,0.42,0.85,1.09,2.02,1.99c1.17,0.9,1.94,1.58,2.32,2.02c0.55,0.65,0.88,1.31,0.99,1.96
			c0.1,0.66,0,1.31-0.3,1.96c-0.3,0.64-0.77,1.17-1.4,1.57c-0.63,0.4-1.37,0.59-2.21,0.59c-0.84-0.01-1.69-0.21-2.56-0.61
			c-1.1-0.51-1.94-1.1-2.53-1.76s-0.95-1.42-1.07-2.25C58.8,177.21,58.91,176.38,59.27,175.56z"/>
	</g>
	<g>
		<path class="st3" d="M33.85,160.96l4.27-3.72l2.42-8.95l1.41,1.62l-1.31,4.63c-0.25,0.86-0.52,1.7-0.81,2.51
			c0.79-0.16,1.7-0.31,2.74-0.45l4.67-0.63l1.35,1.55l-9.32,1.04l-4.27,3.72L33.85,160.96z"/>
	</g>
	<g>
		<path class="st3" d="M18.01,126.31l0.69,1.53c-0.61,0.29-1.06,0.65-1.37,1.06c-0.31,0.41-0.49,0.95-0.54,1.61
			c-0.05,0.66,0.05,1.35,0.3,2.07c0.22,0.64,0.51,1.17,0.87,1.59c0.36,0.42,0.75,0.69,1.16,0.82c0.41,0.12,0.81,0.12,1.21-0.02
			c0.4-0.14,0.7-0.37,0.92-0.71c0.22-0.33,0.33-0.8,0.35-1.4c0.01-0.38-0.04-1.21-0.17-2.46c-0.12-1.26-0.15-2.16-0.06-2.71
			c0.11-0.71,0.34-1.3,0.71-1.76c0.36-0.46,0.84-0.79,1.42-0.99c0.64-0.22,1.3-0.25,1.98-0.08c0.68,0.17,1.28,0.55,1.81,1.15
			c0.53,0.59,0.94,1.32,1.24,2.17c0.33,0.94,0.46,1.81,0.41,2.63c-0.05,0.82-0.3,1.53-0.76,2.11c-0.45,0.59-1.04,1.03-1.77,1.31
			l-0.68-1.56c0.77-0.36,1.27-0.87,1.5-1.5c0.23-0.64,0.18-1.44-0.15-2.41c-0.35-1.01-0.79-1.68-1.33-2.02
			c-0.53-0.33-1.06-0.41-1.58-0.23c-0.45,0.16-0.77,0.45-0.95,0.88c-0.18,0.42-0.19,1.37-0.02,2.83c0.17,1.46,0.22,2.49,0.17,3.07
			c-0.08,0.85-0.32,1.55-0.72,2.08c-0.4,0.53-0.94,0.91-1.61,1.15c-0.67,0.23-1.37,0.26-2.1,0.08c-0.73-0.18-1.38-0.57-1.96-1.17
			c-0.58-0.61-1.03-1.36-1.34-2.26c-0.4-1.14-0.56-2.16-0.5-3.05c0.06-0.89,0.35-1.67,0.87-2.34
			C16.49,127.12,17.17,126.63,18.01,126.31z"/>
	</g>
	<g>
		<path class="st3" d="M22.11,104.1L8.65,99.23l-0.04-1.91l13.26-5.73l0.04,2.02l-4.02,1.64l0.11,5.59l4.08,1.39L22.11,104.1z
			 M16.55,100.35l-0.09-4.53l-3.68,1.47c-1.12,0.45-2.03,0.78-2.75,1c0.86,0.15,1.72,0.38,2.57,0.67L16.55,100.35z"/>
	</g>
	<g>
		<path class="st3" d="M27.79,73.4l-12.55-4.61l1.73-4.71c0.35-0.96,0.76-1.68,1.23-2.17c0.47-0.49,1.02-0.8,1.67-0.93
			c0.65-0.13,1.26-0.1,1.84,0.12c0.54,0.2,0.99,0.53,1.35,0.99c0.37,0.46,0.59,1.04,0.66,1.74c0.5-0.68,1.1-1.12,1.78-1.33
			c0.69-0.21,1.39-0.18,2.12,0.09c0.59,0.22,1.09,0.54,1.5,0.97c0.41,0.43,0.69,0.88,0.83,1.35c0.14,0.47,0.18,1,0.12,1.6
			c-0.06,0.6-0.24,1.3-0.53,2.1L27.79,73.4z M21.12,69.07l1-2.71c0.27-0.74,0.42-1.28,0.44-1.64c0.03-0.47-0.06-0.86-0.27-1.18
			c-0.21-0.32-0.54-0.56-0.98-0.72c-0.42-0.15-0.82-0.19-1.21-0.11c-0.39,0.08-0.71,0.29-0.97,0.62c-0.25,0.33-0.55,0.94-0.88,1.84
			l-0.92,2.51L21.12,69.07z M26.91,71.2l1.15-3.12c0.2-0.54,0.32-0.92,0.36-1.15c0.07-0.41,0.08-0.77,0.01-1.08
			c-0.07-0.32-0.22-0.61-0.46-0.89c-0.24-0.28-0.57-0.49-0.97-0.64c-0.47-0.17-0.92-0.2-1.35-0.09c-0.43,0.11-0.8,0.36-1.09,0.73
			c-0.3,0.37-0.59,0.96-0.89,1.76l-1.07,2.9L26.91,71.2z"/>
	</g>
	<g>
		<path class="st3" d="M38.5,34.02l1.19-1.31l5.73,5.18c1,0.9,1.69,1.73,2.07,2.49c0.38,0.75,0.49,1.59,0.33,2.51
			c-0.16,0.92-0.68,1.86-1.54,2.81c-0.84,0.93-1.69,1.54-2.54,1.85c-0.85,0.3-1.7,0.3-2.53,0.01c-0.83-0.3-1.78-0.92-2.83-1.87
			l-5.73-5.18l1.19-1.31l5.72,5.18c0.86,0.78,1.57,1.27,2.12,1.48c0.55,0.21,1.12,0.22,1.69,0.03c0.57-0.19,1.12-0.57,1.63-1.13
			c0.87-0.96,1.28-1.85,1.21-2.66s-0.72-1.77-1.97-2.9L38.5,34.02z"/>
	</g>
</g>
</svg>
