<?xml version="1.0" encoding="utf-8"?>
<!-- Generator: Adobe Illustrator 25.2.0, SVG Export Plug-In . SVG Version: 6.00 Build 0)  -->
<svg version="1.1" id="Layer_1" xmlns="http://www.w3.org/2000/svg" xmlns:xlink="http://www.w3.org/1999/xlink" x="0px" y="0px"
	 viewBox="0 0 200 100" style="enable-background:new 0 0 200 100;" xml:space="preserve">
<style type="text/css">
	.st0{fill:#29384F;}
	.st1{fill:#6BC9D6;}
	.st2{fill-rule:evenodd;clip-rule:evenodd;fill:#6BC9D6;}
</style>
<g>
	<path class="st0" d="M153.18,5.66h-25.92v25.92h25.92V5.66z M125.43,2h29.58h1.83v1.83v29.58v1.83h-1.83h-29.58h-1.83v-1.83V3.83V2
		H125.43z"/>
	<path class="st1" d="M192.06,5.66h-25.92v25.92h25.92V5.66z M164.31,2h29.58h1.83v1.83v29.58v1.83h-1.83h-29.58h-1.83v-1.83V3.83V2
		H164.31z"/>
	<polygon class="st0" points="125.45,39.31 193.89,39.31 195.72,39.31 195.72,41.14 195.72,70.72 195.72,72.55 193.89,72.55 
		180.18,72.55 182.11,68.89 192.06,68.89 192.06,42.97 127.27,42.97 127.27,58.93 123.62,58.93 123.62,41.14 123.62,39.31 	"/>
	<path class="st2" d="M147.58,7.47c2.11,0,3.81,1.71,3.81,3.81c0,2.11-1.71,3.81-3.81,3.81c-2.11,0-3.81-1.71-3.81-3.81
		C143.77,9.17,145.47,7.47,147.58,7.47"/>
	<path class="st2" d="M185.55,46.29c2.11,0,3.81,1.71,3.81,3.81c0,2.11-1.71,3.81-3.81,3.81c-2.11,0-3.81-1.71-3.81-3.81
		C181.74,48,183.44,46.29,185.55,46.29"/>
	<path class="st1" d="M102.8,66.22l-0.03,0.03c-0.03,0.04-0.11,0.15-0.24,0.32c-0.14,0.17-0.32,0.41-0.56,0.71c0,0,0,0.01,0,0.02
		c-0.01,0.01-0.02,0.01-0.03,0.01v0.03h-0.03v0.03c0,0,0,0.01-0.01,0.02c-0.01,0-0.02,0.01-0.02,0.01c-0.62,0.78-1.43,1.72-2.4,2.85
		c-0.97,1.13-2.05,2.25-3.23,3.38c-0.59,0.56-1.18,1.08-1.78,1.55c-0.6,0.48-1.19,0.9-1.78,1.3c-0.6,0.38-1.17,0.67-1.71,0.87
		c-0.55,0.2-1.06,0.3-1.54,0.3c-0.32,0-0.6-0.05-0.83-0.17c-0.23-0.11-0.41-0.29-0.55-0.53c-0.14-0.22-0.24-0.49-0.32-0.79
		c-0.07-0.3-0.11-0.62-0.11-0.99c0-0.55,0.06-1.13,0.17-1.74c0.11-0.62,0.26-1.27,0.48-1.95c0.28,0.22,0.56,0.39,0.87,0.5
		c0.3,0.11,0.62,0.17,0.96,0.17c0.75,0,1.5-0.26,2.25-0.75c0.38-0.24,0.72-0.53,1.03-0.86c0.31-0.33,0.59-0.72,0.85-1.14
		c0.25-0.41,0.44-0.85,0.56-1.32c0.12-0.47,0.19-0.96,0.19-1.48c-0.01-0.41-0.04-0.82-0.11-1.22c-0.08-0.4-0.18-0.8-0.32-1.2
		c-0.14-0.38-0.32-0.75-0.53-1.08c-0.21-0.32-0.46-0.62-0.75-0.89c-0.28-0.26-0.61-0.46-0.98-0.59c-0.38-0.13-0.78-0.19-1.21-0.19
		c-0.55,0-1.06,0.1-1.55,0.3c-0.5,0.2-0.97,0.51-1.43,0.92c-0.45,0.42-0.87,0.89-1.25,1.41c-0.38,0.53-0.73,1.11-1.05,1.75
		c-0.32,0.63-0.61,1.3-0.86,1.98c-0.25,0.68-0.46,1.38-0.63,2.09c-0.18,0.72-0.31,1.4-0.4,2.06c-0.09,0.67-0.13,1.3-0.13,1.89
		c0,0.29,0.02,0.61,0.06,0.96c0.04,0.35,0.1,0.73,0.19,1.14c0.09,0.42,0.21,0.83,0.37,1.24c0.15,0.41,0.35,0.81,0.59,1.21
		c0.22,0.42,0.49,0.79,0.82,1.13c0.32,0.34,0.7,0.65,1.13,0.92c0.43,0.28,0.91,0.49,1.47,0.62c0.55,0.14,1.17,0.2,1.86,0.2
		c0.52,0,1.04-0.09,1.56-0.27c0.51-0.19,1.02-0.46,1.54-0.83c0.51-0.36,1.02-0.78,1.5-1.24c0.49-0.47,0.96-0.99,1.43-1.56
		c0.46-0.56,0.91-1.14,1.34-1.74c0.44-0.61,0.85-1.22,1.24-1.86c0.38-0.63,0.75-1.25,1.1-1.85c0.34-0.61,0.66-1.19,0.95-1.75
		c0.29-0.56,0.55-1.08,0.78-1.54c0.24-0.47,0.44-0.89,0.6-1.25c0.13-0.31,0.23-0.55,0.31-0.73c0.09-0.18,0.13-0.29,0.15-0.34
		c0.01,0,0.02,0,0.02,0C102.8,66.24,102.8,66.23,102.8,66.22 M88.34,71.29c0.05-0.13,0.09-0.26,0.15-0.39
		c0.04-0.14,0.09-0.27,0.15-0.41c0.32-0.89,0.66-1.72,1.02-2.49c0.36-0.78,0.73-1.49,1.14-2.16c0.39-0.66,0.74-1.16,1.05-1.49
		c0.31-0.33,0.56-0.5,0.78-0.5c0.07,0.01,0.11,0.05,0.15,0.11c0.03,0.07,0.05,0.15,0.05,0.26c0,0.19-0.04,0.42-0.11,0.7
		c-0.08,0.28-0.18,0.61-0.32,1c-0.15,0.39-0.32,0.79-0.51,1.19c-0.19,0.39-0.4,0.8-0.64,1.21c-0.24,0.42-0.49,0.8-0.74,1.16
		c-0.26,0.36-0.52,0.68-0.79,0.96c-0.23,0.26-0.47,0.45-0.69,0.6C88.8,71.18,88.57,71.27,88.34,71.29z M74.41,81.27
		c0.79-0.01,1.56-0.22,2.32-0.63c0.77-0.41,1.5-0.96,2.22-1.66c0.72-0.7,1.4-1.49,2.05-2.36c0.65-0.87,1.25-1.78,1.82-2.7
		c0.56-0.93,1.07-1.84,1.53-2.71c0.45-0.87,0.84-1.66,1.16-2.35c0.32-0.7,0.57-1.25,0.75-1.67c0.17-0.41,0.26-0.62,0.26-0.63
		c0,0.02-0.15,0.22-0.46,0.62c-0.3,0.39-0.72,0.93-1.25,1.59c-0.53,0.66-1.14,1.38-1.84,2.17c-0.7,0.79-1.44,1.58-2.24,2.37
		c-0.79,0.79-1.6,1.51-2.44,2.18c-0.83,0.66-1.64,1.19-2.43,1.59c-0.8,0.4-1.55,0.61-2.24,0.61c-0.65-0.01-1.11-0.24-1.39-0.68
		c-0.28-0.44-0.42-1.03-0.41-1.77c0.01-0.8,0.14-1.69,0.38-2.67c0.25-0.98,0.58-1.96,0.97-2.96c0.4-0.99,0.83-1.9,1.28-2.74
		c0.44-0.84,0.88-1.51,1.29-2.02c0.41-0.5,0.75-0.77,1.02-0.79c0.06,0.01,0.1,0.05,0.14,0.15c0.03,0.09,0.03,0.22,0.03,0.38
		c0,0.29-0.03,0.64-0.09,1.07c-0.07,0.43-0.15,0.87-0.24,1.33c-0.09,0.47-0.19,0.9-0.28,1.31c-0.09,0.41-0.17,0.74-0.23,1
		c-0.07,0.26-0.1,0.39-0.1,0.4c0.01-0.01,0.12-0.14,0.33-0.38c0.21-0.25,0.49-0.57,0.8-0.98c0.32-0.41,0.64-0.86,0.96-1.37
		c0.32-0.51,0.58-1.02,0.8-1.55c0.21-0.54,0.32-1.04,0.33-1.53c0-0.06,0-0.13,0-0.19c-0.01-0.06-0.02-0.13-0.03-0.19
		c-0.07-0.36-0.29-0.68-0.67-0.96c-0.38-0.28-0.85-0.5-1.43-0.67c-0.57-0.16-1.19-0.24-1.84-0.25c-0.87,0.02-1.68,0.29-2.43,0.82
		c-0.74,0.53-1.42,1.25-2.01,2.13c-0.6,0.89-1.11,1.87-1.54,2.95c-0.43,1.08-0.75,2.17-0.97,3.27c-0.23,1.11-0.34,2.14-0.34,3.12
		c-0.01,0.45,0.04,0.99,0.15,1.61c0.1,0.62,0.29,1.27,0.55,1.93c0.26,0.67,0.64,1.29,1.13,1.86c0.49,0.57,1.11,1.04,1.87,1.39
		C72.4,81.08,73.33,81.26,74.41,81.27z M71.34,68.12l-0.03,0.03c-0.04,0.03-0.11,0.1-0.23,0.2c-0.11,0.1-0.26,0.25-0.44,0.42v0.03
		h-0.03c0,0.01,0,0.02-0.01,0.03c0,0-0.01,0-0.02,0v0.03c-0.02,0-0.03,0.01-0.03,0.01c-0.01,0.01-0.02,0.02-0.02,0.02
		c0,0.01,0,0.02,0,0.02c-0.01,0.01-0.02,0.01-0.03,0.01l-0.05,0.05c-0.03,0.03-0.05,0.05-0.08,0.07h-0.03v0.03h-0.03v0.03h-0.02
		v0.03h-0.03v0.03c0,0-0.01,0.01-0.02,0.02c-0.01,0-0.03,0.01-0.03,0.01v0.03c-0.02,0.01-0.03,0.02-0.04,0.03
		c-0.01,0.01-0.03,0.02-0.03,0.03v0.03c-0.01,0-0.02,0-0.03,0.01c-0.01,0.01-0.02,0.02-0.03,0.02v0.03c-0.01,0-0.02,0-0.02,0
		c-0.01,0-0.01,0.01-0.01,0.03h-0.03v0.03h-0.03v0.02h-0.03l-0.04,0.05c-0.47,0.44-0.96,0.91-1.5,1.43c-0.53,0.5-1.09,1.04-1.68,1.6
		c-1.19,1.13-2.24,2.13-3.15,3c-0.46,0.44-0.81,0.78-1.05,1.02c-0.25,0.24-0.38,0.38-0.43,0.41c-0.01,0.02-0.02,0.03-0.03,0.06
		c-0.01,0.02-0.03,0.04-0.03,0.07c-0.02,0.03-0.03,0.05-0.03,0.08c-0.01,0.03-0.02,0.05-0.03,0.08c-0.03,0.04-0.05,0.07-0.08,0.07
		v-0.03c0-0.01,0.01-0.04,0.02-0.09c0.01-0.04,0.02-0.11,0.03-0.2c0.03-0.14,0.12-0.38,0.24-0.73c0.13-0.35,0.3-0.79,0.51-1.35
		c0.2-0.54,0.4-1.08,0.62-1.64c0.21-0.56,0.44-1.12,0.67-1.69c0.45-1.12,0.8-1.89,1.05-2.32c0.05-0.08,0.08-0.15,0.08-0.22
		c0-0.18-0.07-0.37-0.2-0.58c-0.14-0.21-0.34-0.44-0.62-0.67c-0.27-0.24-0.56-0.47-0.86-0.68c-0.3-0.22-0.61-0.43-0.94-0.61
		c-0.32-0.19-0.61-0.32-0.86-0.42c-0.25-0.09-0.46-0.14-0.63-0.14l-0.15,0.03c-0.06,0.02-0.11,0.04-0.14,0.09
		c-0.03,0.04-0.04,0.09-0.04,0.16c-0.19,0.21-0.44,0.5-0.77,0.88c-0.32,0.37-0.72,0.82-1.18,1.34c-0.48,0.54-0.97,1.09-1.49,1.66
		c-0.51,0.56-1.04,1.15-1.59,1.75c-0.55,0.61-1.08,1.18-1.56,1.71c-0.49,0.52-0.96,1.01-1.39,1.44c-0.44,0.44-0.79,0.77-1.05,0.99
		c-0.26,0.22-0.44,0.33-0.53,0.33c-0.01,0.02-0.03,0.02-0.03,0.01c-0.01-0.02-0.01-0.03-0.02-0.06v-0.05
		c0.85-3.8,2.03-6.65,3.53-8.54c0.75-0.96,1.54-1.66,2.36-2.14c0.82-0.48,1.68-0.71,2.57-0.71c0.54,0,1.08,0.09,1.63,0.26
		c0.55,0.17,1.11,0.43,1.66,0.77V65.7c-0.01-0.04-0.03-0.09-0.03-0.15c-0.01-0.07-0.03-0.15-0.03-0.25
		c-0.03-0.15-0.07-0.32-0.12-0.5c-0.05-0.19-0.12-0.4-0.21-0.62c-0.09-0.21-0.2-0.43-0.32-0.65c-0.12-0.22-0.26-0.44-0.43-0.65
		c-0.18-0.21-0.38-0.42-0.61-0.6c-0.24-0.19-0.5-0.36-0.79-0.5c-0.29-0.15-0.62-0.26-0.99-0.34c-0.37-0.07-0.78-0.11-1.21-0.11
		c-0.55,0-1.13,0.11-1.72,0.32c-0.6,0.21-1.21,0.54-1.85,0.97c-0.65,0.44-1.28,0.95-1.89,1.53c-0.61,0.57-1.2,1.23-1.76,1.95
		c-0.57,0.73-1.1,1.49-1.57,2.3c-0.47,0.81-0.89,1.66-1.25,2.57c-0.36,0.9-0.64,1.81-0.82,2.73c-0.19,0.92-0.28,1.86-0.28,2.79
		c0,0.5,0.07,0.96,0.2,1.36c0.14,0.4,0.35,0.76,0.62,1.08c0.26,0.31,0.55,0.58,0.86,0.82c0.31,0.23,0.64,0.42,0.99,0.55
		c0.35,0.15,0.67,0.26,0.96,0.33c0.29,0.08,0.55,0.11,0.79,0.11c0.35,0,0.57-0.07,0.67-0.22c0.06-0.1,0.2-0.32,0.42-0.65
		c0.21-0.34,0.5-0.79,0.88-1.35c0.38-0.56,0.79-1.18,1.22-1.84c0.44-0.67,0.92-1.38,1.43-2.16c0.79-1.19,1.54-2.3,2.24-3.36
		c0.71-1.06,1.37-2.05,1.98-2.99c-0.2,0.63-0.42,1.3-0.64,1.97c-0.23,0.68-0.48,1.39-0.73,2.13c-0.32,0.93-0.61,1.75-0.83,2.48
		c-0.13,0.37-0.22,0.68-0.31,0.96c-0.08,0.27-0.13,0.49-0.17,0.67l-0.03,0.32c0,0.36,0.08,0.72,0.21,1.07
		c0.14,0.36,0.35,0.71,0.64,1.06c0.29,0.36,0.59,0.69,0.9,0.98c0.32,0.29,0.66,0.55,1.02,0.77c0.36,0.24,0.68,0.41,0.97,0.53
		c0.29,0.11,0.54,0.17,0.75,0.17c0.11,0,0.21-0.02,0.29-0.06c0.09-0.04,0.15-0.1,0.18-0.19c0.05-0.09,0.2-0.32,0.45-0.69
		c0.25-0.38,0.59-0.89,1.02-1.54c0.44-0.65,0.91-1.35,1.43-2.08c0.5-0.73,1.04-1.52,1.6-2.35c1.13-1.62,2.13-3.07,3-4.34
		c0.39-0.58,0.69-1.02,0.91-1.33c0.22-0.32,0.35-0.5,0.39-0.55V68.12z M37.01,69.97c0.87-1.78,1.73-3.17,2.57-4.2
		c0.85-1.02,1.63-1.75,2.36-2.18c0.73-0.44,1.35-0.64,1.88-0.63c0.43,0.01,0.76,0.13,1.01,0.35c0.24,0.22,0.36,0.49,0.37,0.83
		c0,0.45-0.04,0.9-0.11,1.35c-0.07,0.44-0.16,0.88-0.29,1.31c-1.01,0.12-1.97,0.33-2.89,0.64c-0.91,0.3-1.78,0.67-2.59,1.11
		C38.48,68.98,37.72,69.46,37.01,69.97z M34.38,77.92c-0.05,0.01-0.09-0.01-0.13-0.04c-0.03-0.03-0.04-0.09-0.04-0.18
		c0-0.05,0.01-0.12,0.03-0.2c0.02-0.09,0.05-0.18,0.09-0.3c0.32-0.79,0.78-1.57,1.4-2.34c0.61-0.78,1.35-1.52,2.19-2.23
		c0.85-0.71,1.78-1.37,2.77-1.97c1-0.61,2.04-1.14,3.12-1.59c-0.57,1.02-1.23,1.96-1.98,2.84c-0.76,0.88-1.53,1.67-2.33,2.38
		c-0.79,0.72-1.54,1.33-2.24,1.84c-0.69,0.52-1.26,0.91-1.72,1.2c-0.45,0.28-0.71,0.44-0.77,0.46c-0.06,0.03-0.13,0.05-0.2,0.08
		C34.51,77.9,34.45,77.92,34.38,77.92z M26.21,94.75v-0.03c0-0.03,0-0.06,0.01-0.1c0-0.04,0.02-0.11,0.04-0.2
		c0.03-0.09,0.13-0.44,0.32-1.08c0.19-0.65,0.44-1.5,0.77-2.58c0.32-1.08,0.69-2.29,1.1-3.65c0.41-1.37,0.85-2.81,1.31-4.34
		c0.47-1.52,0.94-3.06,1.42-4.6c0.09,0.19,0.2,0.38,0.33,0.55c0.13,0.18,0.28,0.36,0.44,0.52c-0.57,1.49-1.13,2.96-1.66,4.41
		c-0.54,1.46-1.04,2.83-1.51,4.11c-0.47,1.29-0.88,2.43-1.24,3.42c-0.36,0.99-0.63,1.77-0.84,2.34c-0.2,0.56-0.3,0.85-0.3,0.86
		c-0.03,0.06-0.07,0.13-0.11,0.21C26.26,94.7,26.22,94.74,26.21,94.75z M26.06,99c0.02,0,0.04-0.01,0.05-0.02
		c0.02-0.01,0.03-0.02,0.04-0.03c0.01-0.01,0.11-0.3,0.32-0.86c0.21-0.57,0.49-1.34,0.86-2.33c0.37-0.98,0.78-2.1,1.25-3.36
		c0.47-1.26,0.96-2.59,1.48-3.99c0.52-1.41,1.03-2.81,1.55-4.22c0.51-1.4,1.01-2.74,1.47-4.01c0.45,0.31,0.91,0.54,1.38,0.72
		c0.46,0.17,0.89,0.26,1.26,0.26l0.3-0.03c0.77-0.14,1.64-0.48,2.59-1.02c0.96-0.54,1.95-1.24,2.94-2.09
		c1.01-0.85,1.95-1.83,2.85-2.91c0.9-1.09,1.66-2.25,2.3-3.49c0.64-1.24,1.07-2.51,1.3-3.81c0.41-0.08,0.82-0.14,1.22-0.18
		c0.39-0.05,0.79-0.07,1.18-0.07c0.25,0,0.49,0.01,0.73,0.03c0.24,0.02,0.47,0.05,0.69,0.09c-0.64-0.24-1.27-0.43-1.89-0.58
		c-0.61-0.15-1.23-0.26-1.83-0.32l0.02-0.75c0-1.22-0.18-2.22-0.53-3c-0.35-0.78-0.83-1.35-1.43-1.72c-0.6-0.36-1.27-0.55-2.01-0.54
		c-0.79,0.01-1.56,0.24-2.32,0.69c-0.75,0.45-1.47,1.07-2.16,1.83c-0.69,0.78-1.33,1.64-1.93,2.59c-0.59,0.96-1.13,1.95-1.6,2.98
		c-0.19,0.41-0.38,0.85-0.58,1.33c-0.2,0.47-0.42,0.96-0.64,1.49c-0.56,0.53-1.08,1.05-1.52,1.57c-0.44,0.51-0.84,1-1.16,1.45
		c0.41-1.31,0.79-2.54,1.16-3.7c0.37-1.15,0.69-2.18,0.98-3.07c0.3-0.9,0.54-1.62,0.73-2.17c0.2-0.55,0.33-0.88,0.4-0.99
		c0.03-0.03,0.03-0.07,0.04-0.1c0.01-0.03,0.01-0.07,0.01-0.12c-0.01-0.21-0.13-0.46-0.37-0.75c-0.23-0.28-0.53-0.57-0.9-0.86
		c-0.37-0.3-0.75-0.57-1.17-0.83c-0.41-0.26-0.79-0.46-1.16-0.61c-0.36-0.16-0.66-0.24-0.88-0.25c-0.1,0-0.18,0.03-0.24,0.06
		c-0.05,0.04-0.09,0.1-0.09,0.2c-0.01,0.2-0.11,0.71-0.31,1.52c-0.2,0.82-0.46,1.86-0.79,3.12c-0.32,1.27-0.71,2.69-1.13,4.26
		c-0.43,1.58-0.87,3.23-1.35,4.95c-0.47,1.72-0.94,3.44-1.41,5.16c-0.48,1.72-0.93,3.37-1.36,4.93c-0.43,1.57-0.81,2.99-1.15,4.24
		c-0.34,1.26-0.62,2.3-0.83,3.1c-0.2,0.8-0.32,1.3-0.35,1.48v0.15c0.01,0.32,0.12,0.67,0.34,1.07c0.22,0.4,0.51,0.8,0.85,1.2
		c0.34,0.41,0.7,0.79,1.07,1.13c0.38,0.34,0.71,0.61,1.02,0.83C25.7,98.89,25.92,98.99,26.06,99z M8.28,80.77H8.16
		c-0.09,0-0.15-0.02-0.2-0.04c-0.04-0.03-0.07-0.08-0.07-0.13c0.06-0.53,0.44-1.25,1.15-2.13c0.71-0.89,1.68-1.89,2.92-2.99
		c1.23-1.1,2.66-2.24,4.29-3.41c1.62-1.17,3.39-2.3,5.29-3.4c0.5,0.42,0.9,0.82,1.19,1.2c0.28,0.38,0.43,0.74,0.44,1.08v0.1
		c-0.08,0.7-0.36,1.4-0.85,2.09c-0.49,0.68-1.12,1.35-1.89,1.99c-0.78,0.64-1.63,1.25-2.57,1.82c-0.94,0.56-1.89,1.08-2.87,1.55
		c-0.97,0.46-1.9,0.87-2.8,1.2c-0.89,0.34-1.67,0.61-2.36,0.79C9.15,80.67,8.63,80.77,8.28,80.77z M8.91,85.22
		c0.51,0,1.19-0.13,2.02-0.38c0.84-0.24,1.77-0.59,2.8-1.04c1.03-0.45,2.1-0.99,3.2-1.61c1.1-0.62,2.18-1.32,3.22-2.08
		c1.04-0.77,2-1.59,2.85-2.46c0.85-0.87,1.55-1.78,2.1-2.72c0.54-0.94,0.86-1.9,0.96-2.88v-0.22c-0.01-0.46-0.13-0.93-0.36-1.41
		c-0.24-0.48-0.55-0.96-0.96-1.43c-0.4-0.49-0.85-0.96-1.37-1.43c0.6-0.31,1.36-0.59,2.29-0.85c0.92-0.26,1.94-0.51,3.03-0.74
		c1.09-0.24,2.19-0.45,3.29-0.67c1.1-0.21,2.13-0.4,3.06-0.59h-0.57c-1.25-0.01-2.52,0.03-3.78,0.13c-1.26,0.09-2.58,0.23-3.94,0.44
		c-0.76,0.13-1.56,0.29-2.4,0.48c-0.84,0.2-1.65,0.33-2.43,0.42c-0.76-0.62-1.52-1.23-2.28-1.83c-0.75-0.59-1.45-1.15-2.08-1.7
		c-0.63-0.54-1.14-1.04-1.52-1.5c-0.38-0.47-0.58-0.9-0.59-1.27v-0.08c0.05-0.44,0.29-1.01,0.71-1.69c0.43-0.69,0.97-1.44,1.65-2.26
		c0.67-0.83,1.41-1.66,2.21-2.51c0.79-0.84,1.59-1.66,2.39-2.42c0.79-0.77,1.53-1.43,2.2-2.01c0.67-0.57,1.22-1,1.64-1.27
		c0.1-0.07,0.2-0.11,0.28-0.14c0.09-0.03,0.17-0.04,0.25-0.04c0.15,0.02,0.26,0.11,0.32,0.28c0.07,0.17,0.1,0.39,0.1,0.67v0.31
		c-0.05,0.5-0.19,1.07-0.41,1.72c-0.22,0.66-0.52,1.34-0.9,2.05c-0.38,0.7-0.84,1.38-1.37,2.02c-0.53,0.65-1.13,1.21-1.79,1.68
		c-0.67,0.48-1.39,0.81-2.19,1c0,0.01,0.02,0.13,0.06,0.34c0.03,0.22,0.14,0.49,0.28,0.79c0.15,0.3,0.38,0.57,0.71,0.82
		c0.32,0.26,0.75,0.41,1.31,0.48h0.22c0.65-0.01,1.32-0.23,2.04-0.67c0.71-0.44,1.41-1.02,2.09-1.76c0.68-0.73,1.31-1.56,1.89-2.48
		c0.58-0.92,1.06-1.88,1.43-2.86c0.38-0.98,0.62-1.94,0.72-2.86c0.01-0.11,0.02-0.23,0.03-0.35c0-0.12,0-0.24,0-0.35
		c0-0.75-0.13-1.43-0.4-2.02c-0.27-0.61-0.71-1.1-1.31-1.49c-0.61-0.39-1.4-0.64-2.39-0.74h-0.12c-0.47,0.01-1.1,0.19-1.89,0.54
		c-0.78,0.35-1.66,0.84-2.63,1.45c-0.97,0.61-1.98,1.32-3.02,2.12c-1.04,0.79-2.05,1.64-3.03,2.53c-0.98,0.89-1.88,1.79-2.68,2.7
		c-0.8,0.9-1.46,1.78-1.96,2.62c-0.5,0.84-0.79,1.6-0.87,2.3v0.25c0.01,0.61,0.19,1.21,0.55,1.82c0.36,0.61,0.84,1.2,1.44,1.8
		c0.6,0.6,1.27,1.19,2.02,1.76c0.74,0.58,1.5,1.14,2.29,1.7c0.79,0.55,1.54,1.08,2.25,1.6c-2.07,0.98-4.02,2.05-5.83,3.22
		c-1.81,1.17-3.41,2.36-4.81,3.56c-1.39,1.2-2.49,2.35-3.31,3.44c-0.82,1.09-1.27,2.05-1.36,2.88v0.09
		c0.01,0.32,0.13,0.64,0.34,0.94c0.21,0.3,0.47,0.56,0.76,0.8c0.29,0.23,0.55,0.4,0.78,0.51c0.13,0.07,0.2,0.19,0.23,0.36
		c0.03,0.17,0.04,0.37,0.06,0.59c0.02,0.23,0.09,0.45,0.2,0.68c0.11,0.22,0.32,0.42,0.64,0.59c0.32,0.17,0.78,0.29,1.4,0.36H8.91z"
		/>
	<path class="st1" d="M178.3,66.22l-0.03,0.03c-0.03,0.04-0.11,0.15-0.24,0.32c-0.14,0.17-0.32,0.41-0.56,0.71c0,0,0,0.01,0,0.02
		c-0.01,0.01-0.02,0.01-0.03,0.01v0.03h-0.03v0.03c0,0,0,0.01-0.01,0.02c-0.01,0-0.02,0.01-0.02,0.01c-0.62,0.78-1.43,1.72-2.4,2.85
		c-0.97,1.13-2.05,2.25-3.23,3.38c-0.59,0.56-1.18,1.08-1.78,1.55c-0.6,0.48-1.19,0.9-1.78,1.3c-0.6,0.38-1.17,0.67-1.71,0.87
		c-0.55,0.2-1.06,0.3-1.54,0.3c-0.32,0-0.6-0.05-0.83-0.17c-0.23-0.11-0.41-0.29-0.55-0.53c-0.14-0.22-0.24-0.49-0.32-0.79
		c-0.07-0.3-0.11-0.62-0.11-0.99c0-0.55,0.06-1.13,0.17-1.74c0.11-0.62,0.26-1.27,0.48-1.95c0.28,0.22,0.56,0.39,0.87,0.5
		c0.3,0.11,0.62,0.17,0.96,0.17c0.75,0,1.5-0.26,2.25-0.75c0.38-0.24,0.72-0.53,1.03-0.86c0.31-0.33,0.59-0.72,0.85-1.14
		c0.25-0.41,0.44-0.85,0.56-1.32c0.12-0.47,0.19-0.96,0.19-1.48c-0.01-0.41-0.04-0.82-0.11-1.22c-0.08-0.4-0.18-0.8-0.32-1.2
		c-0.14-0.38-0.32-0.75-0.53-1.08c-0.21-0.32-0.46-0.62-0.75-0.89c-0.28-0.26-0.61-0.46-0.98-0.59c-0.38-0.13-0.78-0.19-1.21-0.19
		c-0.55,0-1.06,0.1-1.55,0.3c-0.5,0.2-0.97,0.51-1.43,0.92c-0.45,0.42-0.87,0.89-1.25,1.41c-0.38,0.53-0.73,1.11-1.05,1.75
		c-0.32,0.63-0.61,1.3-0.86,1.98c-0.25,0.68-0.46,1.38-0.63,2.09c-0.18,0.72-0.31,1.4-0.4,2.06c-0.09,0.67-0.13,1.3-0.13,1.89
		c0,0.29,0.02,0.61,0.06,0.96c0.04,0.35,0.1,0.73,0.19,1.14c0.09,0.42,0.21,0.83,0.37,1.24c0.15,0.41,0.35,0.81,0.59,1.21
		c0.22,0.42,0.49,0.79,0.82,1.13c0.32,0.34,0.7,0.65,1.13,0.92c0.43,0.28,0.91,0.49,1.47,0.62c0.55,0.14,1.17,0.2,1.86,0.2
		c0.52,0,1.04-0.09,1.56-0.27c0.51-0.19,1.02-0.46,1.54-0.83c0.51-0.36,1.02-0.78,1.5-1.24c0.49-0.47,0.96-0.99,1.43-1.56
		c0.46-0.56,0.91-1.14,1.34-1.74c0.44-0.61,0.85-1.22,1.24-1.86c0.38-0.63,0.75-1.25,1.1-1.85c0.34-0.61,0.66-1.19,0.95-1.75
		c0.29-0.56,0.55-1.08,0.78-1.54c0.24-0.47,0.44-0.89,0.6-1.25c0.13-0.31,0.23-0.55,0.31-0.73c0.09-0.18,0.13-0.29,0.15-0.34
		c0.01,0,0.02,0,0.02,0C178.3,66.24,178.3,66.23,178.3,66.22 M163.84,71.29c0.05-0.13,0.09-0.26,0.15-0.39
		c0.04-0.14,0.09-0.27,0.15-0.41c0.32-0.89,0.66-1.72,1.02-2.49c0.36-0.78,0.73-1.49,1.14-2.16c0.39-0.66,0.74-1.16,1.05-1.49
		c0.31-0.33,0.56-0.5,0.78-0.5c0.07,0.01,0.11,0.05,0.15,0.11c0.03,0.07,0.05,0.15,0.05,0.26c0,0.19-0.04,0.42-0.11,0.7
		c-0.08,0.28-0.18,0.61-0.32,1c-0.15,0.39-0.32,0.79-0.51,1.19c-0.19,0.39-0.4,0.8-0.64,1.21c-0.24,0.42-0.49,0.8-0.74,1.16
		c-0.26,0.36-0.52,0.68-0.79,0.96c-0.23,0.26-0.47,0.45-0.69,0.6C164.29,71.18,164.07,71.27,163.84,71.29z M151.54,81.52l0.1-0.05
		c0.06-0.08,0.28-0.38,0.68-0.93c0.39-0.55,0.9-1.24,1.51-2.09c0.61-0.85,1.28-1.78,2.01-2.78c0.73-1,1.44-2,2.16-3
		c0.71-0.99,1.37-1.89,1.96-2.72c0.59-0.83,1.07-1.49,1.43-1.99c0.36-0.49,0.55-0.75,0.55-0.76c-0.02,0.01-0.25,0.19-0.68,0.53
		c-0.44,0.34-1.02,0.79-1.72,1.32c-0.7,0.55-1.44,1.13-2.23,1.74c-0.79,0.61-1.53,1.19-2.24,1.74c-0.7,0.55-1.27,1.01-1.72,1.37
		c-0.45,0.36-0.69,0.55-0.72,0.59c-0.03,0.04-0.07,0.11-0.11,0.19c-0.04,0.09-0.08,0.13-0.09,0.14v-0.03c-0.01-0.03,0-0.06,0-0.1
		c0.01-0.04,0.03-0.11,0.04-0.2c0.03-0.08,0.12-0.41,0.27-0.97c0.16-0.57,0.38-1.33,0.65-2.27c0.27-0.94,0.58-2.01,0.92-3.2
		c0.34-1.19,0.71-2.46,1.1-3.78c0.38-1.33,0.78-2.66,1.17-4.01c0.4-1.34,0.79-2.63,1.15-3.87c0.38-1.24,0.73-2.37,1.04-3.39
		c1.36-0.19,2.73-0.37,4.11-0.53c1.38-0.16,2.72-0.32,4.04-0.45c1.31-0.14,2.53-0.26,3.66-0.36c1.14-0.11,2.13-0.2,2.99-0.27
		c0.86-0.08,1.53-0.14,2.01-0.17c0.49-0.04,0.73-0.07,0.73-0.07l-6.87-0.03c-1.43,0-3.01,0.01-4.73,0.03
		c-1.72,0.02-3.53,0.06-5.43,0.12c0.21-0.64,0.39-1.15,0.53-1.54c0.14-0.39,0.24-0.63,0.3-0.73c0.03-0.04,0.03-0.08,0.04-0.11
		c0.01-0.04,0.01-0.08,0.01-0.12c-0.02-0.26-0.18-0.56-0.49-0.91c-0.32-0.35-0.71-0.68-1.17-1.02c-0.47-0.33-0.92-0.61-1.37-0.83
		c-0.44-0.22-0.8-0.33-1.08-0.34c-0.1,0-0.18,0.03-0.24,0.08c-0.05,0.04-0.09,0.11-0.09,0.2c-0.01,0.12-0.07,0.42-0.19,0.9
		c-0.12,0.5-0.27,1.13-0.48,1.92c-0.2,0.79-0.44,1.69-0.71,2.71c-2.23,0.11-4.42,0.26-6.6,0.46c-2.18,0.2-4.24,0.45-6.21,0.76
		c-0.09,0.02-0.15,0.04-0.18,0.08c-0.03,0.03-0.04,0.08-0.04,0.13c0,0.09,0.04,0.2,0.12,0.33c0.08,0.13,0.15,0.26,0.24,0.42
		c0.08,0.15,0.13,0.3,0.14,0.44v0.33c-0.01,0.26,0.03,0.5,0.1,0.72c0.09,0.22,0.27,0.34,0.57,0.35l0.23-0.02
		c0.15-0.03,0.43-0.08,0.83-0.15c0.39-0.07,0.87-0.15,1.42-0.22c0.55-0.08,1.12-0.15,1.72-0.2c0.6-0.06,1.17-0.09,1.72-0.09
		c0.44,0,0.83,0.03,1.17,0.08c0.35,0.05,0.62,0.14,0.82,0.26c0.2,0.13,0.31,0.29,0.31,0.5c0,0.04,0,0.09-0.02,0.15
		c-0.01,0.05-0.03,0.1-0.05,0.15c0.34-0.17,0.58-0.35,0.71-0.51c0.13-0.17,0.2-0.32,0.19-0.46c0-0.13-0.03-0.24-0.09-0.33
		c-0.05-0.1-0.11-0.18-0.16-0.23c-0.06-0.06-0.09-0.09-0.09-0.09c0.78-0.2,1.62-0.38,2.55-0.53c-0.4,1.47-0.83,3.01-1.27,4.63
		c-0.44,1.62-0.9,3.26-1.35,4.9c-0.45,1.64-0.88,3.22-1.3,4.73c-0.41,1.51-0.78,2.89-1.11,4.12c-0.32,1.24-0.6,2.25-0.79,3.06
		c-0.2,0.82-0.32,1.34-0.36,1.59v0.15c0.01,0.32,0.13,0.68,0.34,1.08c0.22,0.4,0.5,0.8,0.85,1.21c0.34,0.4,0.69,0.78,1.07,1.12
		c0.37,0.34,0.71,0.61,1.01,0.83C151.16,81.41,151.39,81.52,151.54,81.52z M151.94,68.12l-0.03,0.03c-0.04,0.03-0.11,0.1-0.23,0.2
		c-0.11,0.1-0.26,0.25-0.44,0.42v0.03h-0.03c0,0.01,0,0.02-0.01,0.03c0,0-0.01,0-0.02,0v0.03c-0.02,0-0.03,0.01-0.03,0.01
		c-0.01,0.01-0.02,0.02-0.02,0.02c0,0.01,0,0.02,0,0.02c-0.01,0.01-0.02,0.01-0.03,0.01l-0.05,0.05c-0.03,0.03-0.05,0.05-0.08,0.07
		h-0.03v0.03h-0.03v0.03h-0.02v0.03h-0.03v0.03c0,0-0.01,0.01-0.02,0.02c-0.01,0-0.03,0.01-0.03,0.01v0.03
		c-0.02,0.01-0.03,0.02-0.04,0.03c-0.01,0.01-0.03,0.02-0.03,0.03v0.03c-0.01,0-0.02,0-0.03,0.01c-0.01,0.01-0.02,0.02-0.03,0.02
		v0.03c-0.01,0-0.02,0-0.02,0c-0.01,0-0.01,0.01-0.01,0.03h-0.03v0.03h-0.03v0.02h-0.03l-0.04,0.05c-0.47,0.44-0.96,0.91-1.5,1.43
		c-0.53,0.5-1.09,1.04-1.68,1.6c-1.19,1.13-2.24,2.13-3.15,3c-0.46,0.44-0.81,0.78-1.05,1.02c-0.25,0.24-0.38,0.38-0.43,0.41
		c-0.01,0.02-0.02,0.03-0.03,0.06c-0.01,0.02-0.03,0.04-0.03,0.07c-0.02,0.03-0.03,0.05-0.03,0.08c-0.01,0.03-0.02,0.05-0.03,0.08
		c-0.03,0.04-0.05,0.07-0.08,0.07v-0.03c0-0.01,0.01-0.04,0.02-0.09c0.01-0.04,0.02-0.11,0.03-0.2c0.03-0.14,0.12-0.38,0.24-0.73
		c0.13-0.35,0.3-0.79,0.51-1.35c0.2-0.54,0.4-1.08,0.62-1.64c0.21-0.56,0.44-1.12,0.67-1.69c0.45-1.12,0.8-1.89,1.05-2.32
		c0.05-0.08,0.08-0.15,0.08-0.22c0-0.18-0.07-0.37-0.2-0.58c-0.14-0.21-0.34-0.44-0.62-0.67c-0.27-0.24-0.56-0.47-0.86-0.68
		c-0.3-0.22-0.61-0.43-0.94-0.61c-0.32-0.19-0.61-0.32-0.86-0.42c-0.25-0.09-0.46-0.14-0.63-0.14l-0.15,0.03
		c-0.06,0.02-0.11,0.04-0.14,0.09c-0.03,0.04-0.04,0.09-0.04,0.16c-0.19,0.21-0.44,0.5-0.77,0.88c-0.32,0.37-0.72,0.82-1.18,1.34
		c-0.48,0.54-0.97,1.09-1.49,1.66c-0.51,0.56-1.04,1.15-1.59,1.75c-0.55,0.61-1.08,1.18-1.56,1.71c-0.49,0.52-0.96,1.01-1.39,1.44
		c-0.44,0.44-0.79,0.77-1.05,0.99c-0.26,0.22-0.44,0.33-0.53,0.33c-0.01,0.02-0.03,0.02-0.03,0.01c-0.01-0.02-0.01-0.03-0.02-0.06
		v-0.05c0.85-3.8,2.03-6.65,3.53-8.54c0.75-0.96,1.54-1.66,2.36-2.14c0.82-0.48,1.68-0.71,2.57-0.71c0.54,0,1.08,0.09,1.63,0.26
		c0.55,0.17,1.11,0.43,1.66,0.77V65.7c-0.01-0.04-0.03-0.09-0.03-0.15c-0.01-0.07-0.03-0.15-0.03-0.25
		c-0.03-0.15-0.07-0.32-0.12-0.5c-0.05-0.19-0.12-0.4-0.2-0.62c-0.09-0.21-0.2-0.43-0.32-0.65c-0.12-0.22-0.26-0.44-0.43-0.65
		c-0.18-0.21-0.38-0.42-0.61-0.6c-0.24-0.19-0.5-0.36-0.79-0.5c-0.29-0.15-0.62-0.26-0.99-0.34c-0.37-0.07-0.78-0.11-1.21-0.11
		c-0.55,0-1.13,0.11-1.72,0.32c-0.6,0.21-1.21,0.54-1.85,0.97c-0.65,0.44-1.28,0.95-1.89,1.53c-0.61,0.57-1.2,1.23-1.76,1.95
		c-0.57,0.73-1.1,1.49-1.57,2.3c-0.47,0.81-0.89,1.66-1.25,2.57c-0.36,0.9-0.64,1.81-0.82,2.73c-0.19,0.92-0.28,1.86-0.28,2.79
		c0,0.5,0.07,0.96,0.2,1.36c0.14,0.4,0.35,0.76,0.62,1.08c0.26,0.31,0.55,0.58,0.86,0.82c0.31,0.23,0.64,0.42,0.99,0.55
		c0.35,0.15,0.67,0.26,0.96,0.33c0.29,0.08,0.55,0.11,0.79,0.11c0.35,0,0.57-0.07,0.67-0.22c0.06-0.1,0.2-0.32,0.42-0.65
		c0.21-0.34,0.5-0.79,0.88-1.35c0.38-0.56,0.79-1.18,1.22-1.84c0.44-0.67,0.92-1.38,1.43-2.16c0.79-1.19,1.54-2.3,2.24-3.36
		c0.71-1.06,1.37-2.05,1.98-2.99c-0.2,0.63-0.42,1.3-0.64,1.97c-0.23,0.68-0.48,1.39-0.73,2.13c-0.32,0.93-0.61,1.75-0.83,2.48
		c-0.13,0.37-0.22,0.68-0.31,0.96c-0.08,0.27-0.13,0.49-0.17,0.67l-0.03,0.32c0,0.36,0.08,0.72,0.21,1.07
		c0.14,0.36,0.35,0.71,0.64,1.06c0.29,0.36,0.59,0.69,0.9,0.98c0.32,0.29,0.66,0.55,1.02,0.77c0.36,0.24,0.68,0.41,0.97,0.53
		c0.29,0.11,0.54,0.17,0.75,0.17c0.11,0,0.21-0.02,0.29-0.06c0.09-0.04,0.15-0.1,0.18-0.19c0.05-0.09,0.2-0.32,0.45-0.69
		c0.25-0.38,0.59-0.89,1.02-1.54c0.44-0.65,0.91-1.35,1.43-2.08c0.5-0.73,1.04-1.52,1.6-2.35c1.13-1.62,2.13-3.07,3-4.34
		c0.39-0.58,0.69-1.02,0.91-1.33c0.22-0.32,0.35-0.5,0.39-0.55V68.12z M129.65,85.02c0.34,0,0.61-0.01,0.8-0.02
		c0.2-0.02,0.3-0.03,0.3-0.03c-0.93-0.18-1.72-0.51-2.35-1.01c-0.63-0.49-1.14-1.11-1.51-1.84c-0.38-0.74-0.64-1.56-0.8-2.47
		c-0.16-0.91-0.24-1.86-0.24-2.86c0.01-1.16,0.09-2.33,0.25-3.52c0.15-1.18,0.36-2.31,0.6-3.4c0.24-1.08,0.48-2.07,0.73-2.94
		c0.25-0.88,0.47-1.6,0.65-2.14c0.19-0.55,0.31-0.89,0.36-1.01l0.03-0.13c-0.02-0.19-0.15-0.39-0.44-0.62
		c-0.27-0.22-0.61-0.44-1.02-0.64c-0.42-0.2-0.84-0.38-1.25-0.5c-0.42-0.13-0.79-0.2-1.09-0.2c-0.11,0-0.21,0.02-0.29,0.04
		c-0.09,0.03-0.15,0.07-0.2,0.14c-0.09,0.12-0.34,0.44-0.77,0.98c-0.42,0.54-0.95,1.2-1.58,2.01c-0.64,0.81-1.32,1.67-2.05,2.59
		c-0.73,0.93-1.46,1.84-2.17,2.74c-0.71,0.9-1.36,1.71-1.93,2.43c-0.57,0.73-1.02,1.29-1.34,1.7c0.2-0.68,0.44-1.42,0.68-2.22
		c0.25-0.8,0.5-1.61,0.77-2.43c0.26-0.82,0.51-1.59,0.76-2.3c0.24-0.72,0.45-1.33,0.64-1.83c0.19-0.5,0.33-0.84,0.43-1.01
		c0.03-0.03,0.04-0.08,0.04-0.11c0.01-0.04,0.01-0.08,0.01-0.11c-0.01-0.24-0.16-0.49-0.45-0.76c-0.3-0.27-0.67-0.52-1.1-0.77
		c-0.44-0.24-0.88-0.44-1.32-0.59c-0.45-0.15-0.83-0.23-1.15-0.24c-0.12,0-0.23,0.02-0.32,0.06c-0.09,0.03-0.15,0.08-0.18,0.15
		c-0.09,0.11-0.32,0.42-0.71,0.92c-0.38,0.5-0.87,1.12-1.46,1.87c-0.59,0.75-1.23,1.56-1.91,2.43c-0.68,0.87-1.37,1.73-2.04,2.59
		c-0.67,0.85-1.3,1.65-1.86,2.36c-0.56,0.72-1.02,1.3-1.37,1.74c0.2-0.67,0.44-1.41,0.68-2.2c0.25-0.79,0.5-1.58,0.76-2.37
		c0.26-0.79,0.5-1.54,0.74-2.24c0.23-0.69,0.44-1.28,0.62-1.76c0.18-0.49,0.32-0.81,0.42-0.98c0.03-0.03,0.04-0.08,0.06-0.12
		c0.01-0.03,0.02-0.08,0.02-0.13c-0.02-0.27-0.18-0.59-0.5-0.94c-0.32-0.35-0.7-0.7-1.16-1.03c-0.46-0.33-0.91-0.61-1.37-0.84
		c-0.44-0.22-0.8-0.33-1.08-0.34c-0.1-0.01-0.18,0.02-0.25,0.06c-0.07,0.04-0.09,0.11-0.1,0.21c-0.01,0.26-0.09,0.68-0.22,1.28
		c-0.15,0.6-0.32,1.31-0.55,2.13c-0.23,0.82-0.49,1.7-0.76,2.63c-0.27,0.93-0.55,1.85-0.83,2.78c-0.28,0.93-0.54,1.8-0.78,2.61
		c-0.25,0.82-0.44,1.52-0.61,2.1c-0.16,0.59-0.26,1.01-0.3,1.25l-0.03,0.32c0.01,0.57,0.19,1.14,0.51,1.69
		c0.33,0.55,0.74,1.05,1.24,1.51c0.49,0.45,0.98,0.81,1.48,1.08c0.5,0.27,0.91,0.41,1.25,0.42c0.13,0,0.23-0.02,0.32-0.06
		c0.09-0.04,0.15-0.1,0.19-0.19c0.01-0.04,0.03-0.09,0.03-0.15c0.01-0.06,0.02-0.14,0.02-0.22c0.57-1.41,1.27-2.92,2.08-4.54
		c0.81-1.61,1.79-3.37,2.93-5.27c1.14-1.91,2.48-4,4.04-6.29c-0.2,0.75-0.44,1.59-0.71,2.51c-0.28,0.92-0.57,1.87-0.87,2.83
		c-0.3,0.96-0.58,1.88-0.85,2.75c-0.26,0.87-0.5,1.62-0.67,2.26c-0.19,0.63-0.3,1.08-0.34,1.35l-0.03,0.32
		c0.02,0.57,0.19,1.14,0.52,1.69c0.33,0.55,0.75,1.05,1.25,1.51c0.49,0.45,0.99,0.81,1.49,1.08c0.49,0.27,0.91,0.41,1.25,0.42
		c0.12,0,0.21-0.02,0.3-0.06c0.08-0.04,0.14-0.1,0.18-0.19c0.57-1.43,1.28-2.99,2.12-4.64c0.83-1.66,1.84-3.49,3.02-5.46
		c1.19-1.98,2.59-4.17,4.22-6.55c-0.23,0.35-0.5,0.87-0.8,1.54c-0.32,0.67-0.61,1.53-0.91,2.54c-0.3,1.02-0.55,2.24-0.75,3.63
		c-0.2,1.4-0.31,3-0.32,4.79c0.02,1.48,0.25,2.71,0.68,3.7c0.44,0.99,1.02,1.78,1.72,2.39c0.71,0.6,1.47,1.05,2.28,1.36
		c0.8,0.3,1.59,0.5,2.34,0.61C128.48,84.99,129.12,85.03,129.65,85.02z"/>
	<path class="st0" d="M195.72,91.55c0,0.52-0.1,0.86-0.3,1.04c-0.2,0.18-0.56,0.27-1.09,0.27h-3.43c-0.57,0-0.94-0.1-1.12-0.3
		c-0.18-0.2-0.27-0.59-0.27-1.16l1.14-0.24v0.66h3.92v-1.27h-3.46c-0.52,0-0.88-0.09-1.08-0.27c-0.2-0.18-0.3-0.53-0.3-1.04v-0.61
		c0-0.52,0.1-0.86,0.3-1.04c0.2-0.18,0.56-0.27,1.08-0.27h3.15c0.53,0,0.89,0.09,1.09,0.27c0.19,0.18,0.29,0.54,0.29,1.06
		l-1.14,0.27v-0.63h-3.63v1.19h3.46c0.52,0,0.89,0.09,1.09,0.27c0.2,0.18,0.3,0.53,0.3,1.04V91.55z M185.71,92.86h-0.88l-4.08-3.43
		c-0.17-0.14-0.33-0.29-0.46-0.45c0.04,0.36,0.05,0.64,0.05,0.85v3.03h-1.16v-5.55h0.88l3.9,3.27c0.28,0.24,0.49,0.44,0.63,0.6
		c-0.04-0.52-0.05-0.84-0.05-0.96v-2.91h1.16V92.86z M174.02,91.82V88.3h-4.26v3.52H174.02z M175.31,91.55c0,0.52-0.1,0.86-0.3,1.04
		c-0.2,0.18-0.56,0.27-1.08,0.27h-4.09c-0.52,0-0.88-0.09-1.08-0.27c-0.2-0.18-0.3-0.53-0.3-1.04v-2.92c0-0.52,0.1-0.86,0.3-1.04
		c0.2-0.18,0.56-0.27,1.08-0.27h4.09c0.52,0,0.88,0.09,1.08,0.27c0.2,0.18,0.3,0.53,0.3,1.04V91.55z M164.58,92.86h-1.29v-5.55h1.29
		V92.86z M160.55,88.3h-2.56v4.56h-1.29V88.3h-2.55v-0.99h6.4V88.3z M151.4,91.55c0,0.52-0.1,0.86-0.3,1.04
		c-0.2,0.18-0.56,0.27-1.08,0.27h-3.51c-0.52,0-0.88-0.09-1.08-0.27c-0.2-0.18-0.3-0.53-0.3-1.04v-4.24h1.29v4.51h3.68v-4.51h1.29
		V91.55z M142.29,92.86h-5.45v-5.55h1.29v4.51h4.16V92.86z M131.67,91.82V88.3h-4.26v3.52H131.67z M132.96,91.55
		c0,0.52-0.1,0.86-0.3,1.04c-0.2,0.18-0.56,0.27-1.08,0.27h-4.09c-0.52,0-0.88-0.09-1.08-0.27c-0.2-0.18-0.3-0.53-0.3-1.04v-2.92
		c0-0.52,0.1-0.86,0.3-1.04c0.2-0.18,0.56-0.27,1.08-0.27h4.09c0.52,0,0.88,0.09,1.08,0.27c0.2,0.18,0.3,0.53,0.3,1.04V91.55z
		 M122.39,91.55c0,0.52-0.1,0.86-0.3,1.04c-0.2,0.18-0.56,0.27-1.09,0.27h-3.43c-0.57,0-0.94-0.1-1.12-0.3
		c-0.18-0.2-0.27-0.59-0.27-1.16l1.14-0.24v0.66h3.92v-1.27h-3.46c-0.52,0-0.88-0.09-1.08-0.27c-0.2-0.18-0.3-0.53-0.3-1.04v-0.61
		c0-0.52,0.1-0.86,0.3-1.04c0.2-0.18,0.56-0.27,1.08-0.27h3.15c0.53,0,0.89,0.09,1.09,0.27c0.19,0.18,0.29,0.54,0.29,1.06
		l-1.14,0.27v-0.63h-3.63v1.19h3.46c0.52,0,0.89,0.09,1.09,0.27c0.2,0.18,0.3,0.53,0.3,1.04V91.55z M103.02,89.38v-0.67
		c0-0.19-0.05-0.31-0.16-0.37c-0.08-0.05-0.22-0.08-0.42-0.08h-2.9v1.55h2.9c0.2,0,0.34-0.03,0.42-0.08
		C102.96,89.69,103.02,89.57,103.02,89.38z M104.84,92.86h-1.85l-2.24-2.1h-1.23v2.1h-1.27v-5.55h4.75c0.83,0,1.25,0.36,1.25,1.08
		v1.3c0,0.54-0.22,0.87-0.65,1c-0.16,0.05-0.61,0.08-1.33,0.08L104.84,92.86z M93.09,91.82V88.3h-4.26v3.52H93.09z M94.38,91.55
		c0,0.52-0.1,0.86-0.3,1.04c-0.2,0.18-0.56,0.27-1.08,0.27h-4.09c-0.52,0-0.88-0.09-1.08-0.27c-0.2-0.18-0.3-0.53-0.3-1.04v-2.92
		c0-0.52,0.1-0.86,0.3-1.04c0.2-0.18,0.56-0.27,1.08-0.27H93c0.52,0,0.88,0.09,1.08,0.27c0.2,0.18,0.3,0.53,0.3,1.04V91.55z
		 M83.66,92.86h-1.29v-5.55h1.29V92.86z M77.33,89.38v-0.67c0-0.19-0.05-0.31-0.16-0.37c-0.08-0.05-0.22-0.08-0.42-0.08h-2.9v1.55
		h2.9c0.2,0,0.34-0.03,0.42-0.08C77.28,89.69,77.33,89.57,77.33,89.38z M79.16,92.86h-1.85l-2.24-2.1h-1.23v2.1h-1.27v-5.55h4.75
		c0.83,0,1.25,0.36,1.25,1.08v1.3c0,0.54-0.22,0.87-0.65,1c-0.16,0.05-0.61,0.08-1.33,0.08L79.16,92.86z M69.03,92.86h-5.73v-5.55
		h5.68v0.95h-4.39v1.24h2.56v0.95h-2.56v1.38h4.44V92.86z M60.55,88.3h-2.56v4.56H56.7V88.3h-2.55v-0.99h6.4V88.3z M51.42,92.86
		h-0.88l-4.08-3.43c-0.17-0.14-0.33-0.29-0.46-0.45c0.04,0.36,0.05,0.64,0.05,0.85v3.03h-1.16v-5.55h0.88l3.9,3.27
		c0.28,0.24,0.49,0.44,0.63,0.6c-0.04-0.52-0.05-0.84-0.05-0.96v-2.91h1.16V92.86z M40.9,92.86h-1.29v-5.55h1.29V92.86z"/>
</g>
</svg>
